<?xml version="1.0" encoding="UTF-8" standalone="no"?>
<svg
   xmlns:dc="http://purl.org/dc/elements/1.1/"
   xmlns:cc="http://creativecommons.org/ns#"
   xmlns:rdf="http://www.w3.org/1999/02/22-rdf-syntax-ns#"
   xmlns:svg="http://www.w3.org/2000/svg"
   xmlns="http://www.w3.org/2000/svg"
   xmlns:sodipodi="http://sodipodi.sourceforge.net/DTD/sodipodi-0.dtd"
   xmlns:inkscape="http://www.inkscape.org/namespaces/inkscape"
   viewBox="0 0 500 500"
   id="svg4806"
   version="1.1"
   inkscape:version="0.91 r13725"
   sodipodi:docname="mac.svg">
  <metadata
     id="metadata4814">
    <rdf:RDF>
      <cc:Work
         rdf:about="">
        <dc:format>image/svg+xml</dc:format>
        <dc:type
           rdf:resource="http://purl.org/dc/dcmitype/StillImage" />
      </cc:Work>
    </rdf:RDF>
  </metadata>
  <defs
     id="defs4812" />
  <sodipodi:namedview
     pagecolor="#ffffff"
     bordercolor="#666666"
     borderopacity="1"
     objecttolerance="10"
     gridtolerance="10"
     guidetolerance="10"
     inkscape:pageopacity="0"
     inkscape:pageshadow="2"
     inkscape:window-width="956"
     inkscape:window-height="1041"
     id="namedview4810"
     showgrid="false"
     inkscape:zoom="0.472"
     inkscape:cx="-64.618644"
     inkscape:cy="250"
     inkscape:window-x="960"
     inkscape:window-y="37"
     inkscape:window-maximized="0"
     inkscape:current-layer="svg4806" />
  <path
     d="M405,182c-61,66-57,118,13,165c-11,33-29,63-54,89c-17,18-38,25-60,14c-32-15-62-14-93,1c-18,9-35,5-51-8c-49-40-95-150-72-219c18-55,75-99,137-69c21,10,40,06,61-2C337,134,373,143,405,182zM252,137c0-50,26-80,78-92C335,96,302,136,252,137z"
     fill="#1e3561"
     id="path4808"
     style="fill:#ffbb00;fill-opacity:1" />
</svg>
